<?xml version="1.0" encoding="iso-8859-1"?>
<!-- Generator: Adobe Illustrator 19.0.0, SVG Export Plug-In . SVG Version: 6.00 Build 0)  -->
<svg version="1.1" id="Layer_1" xmlns="http://www.w3.org/2000/svg" xmlns:xlink="http://www.w3.org/1999/xlink" x="0px" y="0px"
	 viewBox="0 0 512.001 512.001" style="enable-background:new 0 0 512.001 512.001;" xml:space="preserve">
<g>
	<g>
		<path d="M102.079,401.905c-18.566,0-33.67,15.105-33.67,33.67c0,18.566,15.105,33.67,33.67,33.67s33.67-15.105,33.67-33.67
			C135.749,417.009,120.645,401.905,102.079,401.905z M102.079,453.211c-9.725,0-17.637-7.912-17.637-17.637
			c0-9.725,7.912-17.637,17.637-17.637s17.637,7.912,17.637,17.637C119.716,445.299,111.804,453.211,102.079,453.211z"/>
	</g>
</g>
<g>
	<g>
		<path d="M409.921,401.905c-18.566,0-33.67,15.105-33.67,33.67c0,18.566,15.105,33.67,33.67,33.67
			c18.566,0,33.67-15.105,33.67-33.67C443.591,417.009,428.486,401.905,409.921,401.905z M409.921,453.211
			c-9.725,0-17.637-7.912-17.637-17.637c0-9.725,7.912-17.637,17.637-17.637s17.637,7.912,17.637,17.637
			C427.557,445.299,419.645,453.211,409.921,453.211z"/>
	</g>
</g>
<g>
	<g>
		<path d="M472.412,288.75l-100.698-6.294l-13.61-21.172c8.588,1.812,17.331,2.732,26.163,2.732
			c70.433,0,127.733-57.3,127.733-127.733S454.7,8.552,384.267,8.552s-127.733,57.3-127.733,127.733
			c0,8.77,0.929,17.543,2.75,26.188H98.006c-21.401,0-40.617,13.542-47.815,33.696l-30.972,86.723
			C8.206,285.553,0,295.485,0,307.303v86.763c0,12.835,7.132,24.375,18.613,30.116l15.685,7.842
			c-0.061,1.176-0.093,2.359-0.093,3.55c0,37.426,30.448,67.875,67.875,67.875c31.712,0,58.406-21.864,65.821-51.307h176.2
			c7.415,29.443,34.108,51.307,65.821,51.307c35.289,0,64.362-27.074,67.569-61.539l9.006-2.251
			c15.017-3.754,25.504-17.187,25.504-32.665v-76.104C512,308.648,494.611,290.138,472.412,288.75z M384.267,24.585
			c61.592,0,111.699,50.108,111.699,111.699s-50.108,111.699-111.699,111.699c-13.452,0-26.681-2.432-39.357-7.221l-37.865-58.9
			c-7.031-10.938-18.508-17.885-31.265-19.159c-2.125-8.7-3.213-17.564-3.213-26.419C272.568,74.693,322.675,24.585,384.267,24.585z
			 M352.482,282.188l-173.976-0.002V212.71h128.802c0.167,0,0.329-0.015,0.494-0.025L352.482,282.188z M65.29,201.561
			c4.924-13.79,18.073-23.055,32.716-23.055h173.525c8.952,0,17.188,4.496,22.028,12.026l3.95,6.145H123.355
			c-11.179,0-20.848,7.194-24.06,17.901l-15.392,51.307c-1.643,5.475-1.381,11.156,0.632,16.301H36.495L65.29,201.561z
			 M162.472,212.71v69.476l-54.561-0.001c-2.881-0.016-5.517-1.346-7.237-3.659c-1.732-2.327-2.247-5.256-1.413-8.035l15.392-51.307
			c1.162-3.873,4.659-6.474,8.703-6.474H162.472z M16.033,332.426h18.171v17.637c0,9.725-7.912,17.637-17.637,17.637h-0.534V332.426
			z M102.079,487.416c-28.585,0-51.841-23.256-51.841-51.841c0-28.585,23.256-51.841,51.841-51.841
			c28.585,0,51.841,23.256,51.841,51.841C153.921,464.16,130.665,487.416,102.079,487.416z M409.921,487.416
			c-28.585,0-51.841-23.256-51.841-51.841c0-28.585,23.256-51.841,51.841-51.841c28.585,0,51.841,23.256,51.841,51.841
			C461.762,464.16,438.506,487.416,409.921,487.416z M495.967,406.993c0,8.109-5.493,15.144-13.359,17.111l-5.565,1.392
			c-4.884-32.663-33.121-57.796-67.122-57.796c-37.426,0-67.875,30.448-67.875,67.875c0,0.18,0.012,0.356,0.014,0.534H169.94
			c0.001-0.179,0.014-0.355,0.014-0.534c0-37.426-30.449-67.875-67.875-67.875c-30.462,0-56.299,20.173-64.859,47.86l-11.436-5.719
			c-6.015-3.007-9.75-9.051-9.75-15.775v-10.333h0.534c18.566,0,33.67-15.105,33.67-33.67V324.41c0-4.427-3.589-8.017-8.017-8.017
			H16.033v-9.09c0-4.989,4.042-9.047,9.021-9.082c0.021,0,0.043,0.002,0.064,0.002c0.027,0,0.051-0.005,0.078-0.006l341.717,0.005
			l104.499,6.531c8.438,0.527,15.75,5.047,20.152,11.64h-30.337c-4.427,0-8.017,3.589-8.017,8.017v8.551
			c0,18.566,15.105,33.67,33.67,33.67h9.086V406.993z M495.967,350.598h-9.086c-9.725,0-17.637-7.912-17.637-17.637v-0.534h26.188
			c0.181,0,0.357-0.015,0.534-0.027V350.598z"/>
	</g>
</g>
<g>
	<g>
		<path d="M427.023,316.393H76.426c-4.427,0-8.017,3.589-8.017,8.017s3.589,8.017,8.017,8.017h350.597
			c4.427,0,8.017-3.589,8.017-8.017S431.45,316.393,427.023,316.393z"/>
	</g>
</g>
<g>
	<g>
		<path d="M324.409,401.905H187.591c-4.427,0-8.017,3.589-8.017,8.017c0,4.427,3.589,8.017,8.017,8.017h136.818
			c4.427,0,8.017-3.589,8.017-8.017C332.426,405.494,328.837,401.905,324.409,401.905z"/>
	</g>
</g>
<g>
	<g>
		<path d="M433.916,123.641c-1.444-2.433-4.064-3.924-6.893-3.924h-22.047l20.865-48.684c1.061-2.477,0.807-5.321-0.675-7.571
			c-1.483-2.25-3.999-3.603-6.693-3.603h-51.307c-3.821,0-7.111,2.697-7.861,6.444l-17.102,85.512
			c-0.47,2.355,0.139,4.797,1.661,6.655c1.523,1.858,3.798,2.934,6.2,2.934h25.123l-7.425,59.398
			c-0.478,3.821,1.829,7.443,5.495,8.624c0.813,0.262,1.642,0.388,2.46,0.388c2.87,0,5.603-1.548,7.038-4.179l51.307-94.063
			C435.416,129.088,435.36,126.073,433.916,123.641z M388.912,180.863l3.31-26.481c0.285-2.282-0.423-4.576-1.944-6.3
			c-1.522-1.724-3.71-2.711-6.01-2.711h-24.426l13.896-69.479h32.578l-20.865,48.684c-1.061,2.477-0.807,5.321,0.676,7.571
			c1.483,2.25,3.999,3.603,6.693,3.603h20.7L388.912,180.863z"/>
	</g>
</g>
<g>
</g>
<g>
</g>
<g>
</g>
<g>
</g>
<g>
</g>
<g>
</g>
<g>
</g>
<g>
</g>
<g>
</g>
<g>
</g>
<g>
</g>
<g>
</g>
<g>
</g>
<g>
</g>
<g>
</g>
</svg>
